{"title":"Beethoven's 5th 2003 DVDrip English Klam","uid":6510950,"size":1390240693,"categoryP":"video","categoryS":"movies","magnet":"?xt=urn:btih:5b44650a1df08ebc4cb7bbfbb0f1e22a2fcae7ff&amp;dn=Beethoven%5C%27s+5th+2003+DVDrip+English+Klam&amp;tr=udp%3A%2F%2Ftracker.openbittorrent.com%3A80&amp;tr=udp%3A%2F%2Fopen.demonii.com%3A1337&amp;tr=udp%3A%2F%2Ftracker.coppersurfer.tk%3A6969&amp;tr=udp%3A%2F%2Fexodus.desync.com%3A6969","seeders":6,"leechers":2,"uploader":"Klambake","files":-1,"time":1309619347,"description":"With: Daveigh Chase, Dave Thomas and John Larroquette\n\nDe familie Newton gaat op vakantie naar de Bahama's, maar de kleine Sara gaat bij haar oom logeren in de vakantie. Terwijl Sara en haar oom Freddy, aan het vissen zijn, vindt Beethoven een tiendollar-biljet uit 1920. Dit geld blijkt afkomstig te zijn van Rita en Moe (de Bonnie &amp; Clyde van de jaren '20). Iemand uit het stadje komt er achter dat Beethoven dit biljet heeft gevonden, en ineens begint de hele stad vreemd te doen.\n\nSara Newton and Beethoven spends summer with Freddy Kablinski in Quicksilver, a weird town. \n\n------------------ Dutch Friends ------------------\nYou can find my Friends at: http://www.Film-Test.nl \n------ They got my dutchs subs ---- and more ------\n\nGeneral:\n\nComplete name                    : Beethoven 5th\\Beethoven 5th.avi\nFormat                           : AVI\nFormat/Info                      : Audio Video Interleave\nFile size                        : 1.29 GiB\nDuration                         : 1h 27mn\nOverall bit rate                 : 2 125 Kbps\n\nVideo:\n\nFormat                           : MPEG-4 Visual\nFormat profile                   : Simple@L3\nFormat settings, BVOP            : No\nFormat settings, QPel            : No\nFormat settings, GMC             : No warppoints\nFormat settings, Matrix          : Default (H.263)\nCodec ID                         : XVID\nCodec ID/Hint                    : XviD\nDuration                         : 1h 27mn\nBit rate                         : 1 730 Kbps\nWidth                            : 652 pixels\nHeight                           : 352 pixels\nDisplay aspect ratio             : 1.852\nFrame rate                       : 25.000 fps\nColor space                      : YUV\nChroma subsampling               : 4:2:0\nBit depth                        : 8 bits\nScan type                        : Progressive\nBits/(Pixel*Frame)               : 0.302\nStream size                      : 1.05 GiB (81%)\nWriting library                  : XviD 1.1.2 (UTC 2006-11-01)\n\nAudio:\n\nFormat                           : AC-3\nFormat/Info                      : Audio Coding 3\nMode extension                   : CM (complete main)\nCodec ID                         : 2000\nDuration                         : 1h 27mn\nBit rate mode                    : Constant\nBit rate                         : 384 Kbps\nChannel(s)                       : 6 channels\nChannel positions                : Front: L C R, Side: L R, LFE\nSampling rate                    : 48.0 KHz\nBit depth                        : 16 bits\nStream size                      : 239 MiB (18%)\nAlignment                        : Aligned on interleaves\nInterleave, duration             : 32 ms (0.80 video frame)\nInterleave, preload duration     : 32 ms\n\n","torrent":{"xt":"urn:btih:5b44650a1df08ebc4cb7bbfbb0f1e22a2fcae7ff","amp;dn":"Beethoven%5C%27s+5th+2003+DVDrip+English+Klam","amp;tr":["udp%3A%2F%2Ftracker.openbittorrent.com%3A80","udp%3A%2F%2Fopen.demonii.com%3A1337","udp%3A%2F%2Ftracker.coppersurfer.tk%3A6969","udp%3A%2F%2Fexodus.desync.com%3A6969"],"infoHash":"5b44650a1df08ebc4cb7bbfbb0f1e22a2fcae7ff","infoHashBuffer":{"type":"Buffer","data":[91,68,101,10,29,240,142,188,76,183,187,251,176,241,226,42,47,202,231,255]},"announce":[],"urlList":[]}}